<?xml version="1.0" encoding="UTF-8" standalone="no"?>
<svg
   xmlns:dc="http://purl.org/dc/elements/1.1/"
   xmlns:cc="http://creativecommons.org/ns#"
   xmlns:rdf="http://www.w3.org/1999/02/22-rdf-syntax-ns#"
   xmlns:svg="http://www.w3.org/2000/svg"
   xmlns="http://www.w3.org/2000/svg"
   xmlns:xlink="http://www.w3.org/1999/xlink"
   xmlns:sodipodi="http://sodipodi.sourceforge.net/DTD/sodipodi-0.dtd"
   xmlns:inkscape="http://www.inkscape.org/namespaces/inkscape"
   viewBox="0 0 841.88977 595.27557"
   id="svg216"
   height="595.27557"
   width="841.88977"
   version="1.1"
   sodipodi:docname="outlines.svg"
   inkscape:version="0.92.2 (5c3e80d, 2017-08-06)">
  <sodipodi:namedview
     pagecolor="#ffffff"
     bordercolor="#666666"
     borderopacity="1"
     objecttolerance="10"
     gridtolerance="10"
     guidetolerance="10"
     inkscape:pageopacity="0"
     inkscape:pageshadow="2"
     inkscape:window-width="3840"
     inkscape:window-height="2066"
     id="namedview4614"
     showgrid="false"
     inkscape:zoom="1.5688661"
     inkscape:cx="144.96953"
     inkscape:cy="366.50577"
     inkscape:window-x="-11"
     inkscape:window-y="-11"
     inkscape:window-maximized="1"
     inkscape:current-layer="svg216" />
  <metadata
     id="metadata222">
    <rdf:RDF>
      <cc:Work
         rdf:about="">
        <dc:format>image/svg+xml</dc:format>
        <dc:type
           rdf:resource="http://purl.org/dc/dcmitype/StillImage" />
      </cc:Work>
    </rdf:RDF>
  </metadata>
  <defs
     id="defs220" />
  <path
     d="m -0.9569,7.7968 838.0201,-7.0036 5.3876,644.6597 -838.02,7.0037 z"
     style="fill:none"
     id="path2" />
  <image
     sodipodi:absref="C:\dev\sdlTossup\info\skin.jpg"
     xlink:href="skin.jpg"
     x="1.7223001"
     y="4.2837"
     width="838.04932"
     height="644.68231"
     transform="rotate(-0.4788,420.747,326.6249)"
     id="image4" />
  <path
     style="fill:#1b1918"
     d="m 510.9983, 325.6714  c 3.8526,0.0000 6.9758,3.1232 6.9758,6.9758 c 0.0000,3.8526 -3.1232,6.9758 -6.9758,6.9758 c -3.8526,0.0000 -6.9758,-3.1232 -6.9758,-6.9758 c 0.0000,-3.8526 3.1232,-6.9758 6.9758,-6.9758 z"
     id="path7"
     inkscape:label="outer0" />
  <path
     style="fill:#1b1918"
     d="m 510.9805, 296.161  c 3.8526,0.0000 6.9758,3.1232 6.9758,6.9758 c 0.0000,3.8526 -3.1232,6.9758 -6.9758,6.9758 c -3.8526,0.0000 -6.9758,-3.1232 -6.9758,-6.9758 c 0.0000,-3.8526 3.1232,-6.9758 6.9758,-6.9758 z"
     id="path9"
     inkscape:label="outer1" />
  <path
     style="fill:#1b1918"
     d="m 505.7109, 267.8383  c 3.8526,0.0000 6.9758,3.1232 6.9758,6.9758 c 0.0000,3.8526 -3.1232,6.9758 -6.9758,6.9758 c -3.8526,0.0000 -6.9758,-3.1232 -6.9758,-6.9758 c 0.0000,-3.8526 3.1232,-6.9758 6.9758,-6.9758 z"
     id="path11"
     inkscape:label="outer2" />
  <path
     style="fill:#1b1918"
     d="m 490.3918, 241.4297  c 3.8526,0.0000 6.9758,3.1232 6.9758,6.9758 c 0.0000,3.8526 -3.1232,6.9758 -6.9758,6.9758 c -3.8526,0.0000 -6.9758,-3.1232 -6.9758,-6.9758 c 0.0000,-3.8526 3.1232,-6.9758 6.9758,-6.9758 z"
     id="path13"
     inkscape:label="outer3" />
  <path
     style="fill:#1b1918"
     d="m 469.6497, 223.0732  c 3.8526,0.0000 6.9758,3.1232 6.9758,6.9758 c 0.0000,3.8526 -3.1232,6.9758 -6.9758,6.9758 c -3.8526,0.0000 -6.9758,-3.1232 -6.9758,-6.9758 c 0.0000,-3.8526 3.1232,-6.9758 6.9758,-6.9758 z"
     id="path15"
     inkscape:label="outer4" />
  <path
     style="fill:#1b1918"
     d="m 440.7376, 212.5629  c 3.8526,0.0000 6.9758,3.1232 6.9758,6.9758 c 0.0000,3.8526 -3.1232,6.9758 -6.9758,6.9758 c -3.8526,0.0000 -6.9758,-3.1232 -6.9758,-6.9758 c 0.0000,-3.8526 3.1232,-6.9758 6.9758,-6.9758 z"
     id="path17"
     inkscape:label="outer5" />
  <path
     style="fill:#1b1918"
     d="m 413.0572, 212.56550000000001  c 3.8526,0.0000 6.9758,3.1232 6.9758,6.9758 c 0.0000,3.8526 -3.1232,6.9758 -6.9758,6.9758 c -3.8526,0.0000 -6.9758,-3.1232 -6.9758,-6.9758 c 0.0000,-3.8526 3.1232,-6.9758 6.9758,-6.9758 z"
     id="path19"
     inkscape:label="outer6" />
  <path
     style="fill:#1b1918"
     d="m 384.321, 223.1  c 3.8526,0.0000 6.9758,3.1232 6.9758,6.9758 c 0.0000,3.8526 -3.1232,6.9758 -6.9758,6.9758 c -3.8526,0.0000 -6.9758,-3.1232 -6.9758,-6.9758 c 0.0000,-3.8526 3.1232,-6.9758 6.9758,-6.9758 z"
     id="path21"
     inkscape:label="outer7" />
  <path
     style="fill:#1b1918"
     d="m 362.6406, 241.14780000000002  c 3.8526,0.0000 6.9758,3.1232 6.9758,6.9758 c 0.0000,3.8526 -3.1232,6.9758 -6.9758,6.9758 c -3.8526,0.0000 -6.9758,-3.1232 -6.9758,-6.9758 c 0.0000,-3.8526 3.1232,-6.9758 6.9758,-6.9758 z"
     id="path23"
     inkscape:label="outer8" />
  <path
     style="fill:#1b1918"
     d="m 347.3967, 267.4027  c 3.8526,0.0000 6.9758,3.1232 6.9758,6.9758 c 0.0000,3.8526 -3.1232,6.9758 -6.9758,6.9758 c -3.8526,0.0000 -6.9758,-3.1232 -6.9758,-6.9758 c 0.0000,-3.8526 3.1232,-6.9758 6.9758,-6.9758 z"
     id="path25"
     inkscape:label="outer9" />
  <path
     style="fill:#1b1918"
     d="m 341.5917, 295.8894  c 3.8526,0.0000 6.9758,3.1232 6.9758,6.9758 c 0.0000,3.8526 -3.1232,6.9758 -6.9758,6.9758 c -3.8526,0.0000 -6.9758,-3.1232 -6.9758,-6.9758 c 0.0000,-3.8526 3.1232,-6.9758 6.9758,-6.9758 z"
     id="path27"
     inkscape:label="outera" />
  <path
     style="fill:#1b1918"
     d="m 341.4843, 325.5726  c 3.8526,0.0000 6.9758,3.1232 6.9758,6.9758 c 0.0000,3.8526 -3.1232,6.9758 -6.9758,6.9758 c -3.8526,0.0000 -6.9758,-3.1232 -6.9758,-6.9758 c 0.0000,-3.8526 3.1232,-6.9758 6.9758,-6.9758 z"
     id="path29"
     inkscape:label="outerb" />
  <path
     style="fill:#1b1918"
     d="m 490.1823, 325.8454  c 3.8526,0.0000 6.9758,3.1232 6.9758,6.9758 c 0.0000,3.8526 -3.1232,6.9758 -6.9758,6.9758 c -3.8526,0.0000 -6.9758,-3.1232 -6.9758,-6.9758 c 0.0000,-3.8526 3.1232,-6.9758 6.9758,-6.9758 z"
     id="path31"
     inkscape:label="mid0" />
  <path
     style="fill:#1b1918"
     d="m 490.1835, 298.6224  c 3.8526,0.0000 6.9758,3.1232 6.9758,6.9758 c 0.0000,3.8526 -3.1232,6.9758 -6.9758,6.9758 c -3.8526,0.0000 -6.9758,-3.1232 -6.9758,-6.9758 c 0.0000,-3.8526 3.1232,-6.9758 6.9758,-6.9758 z"
     id="path33"
     inkscape:label="mid1" />
  <path
     style="fill:#1b1918"
     d="m 482.638, 271.6914  c 3.8526,0.0000 6.9758,3.1232 6.9758,6.9758 c 0.0000,3.8526 -3.1232,6.9758 -6.9758,6.9758 c -3.8526,0.0000 -6.9758,-3.1232 -6.9758,-6.9758 c 0.0000,-3.8526 3.1232,-6.9758 6.9758,-6.9758 z"
     id="path35"
     inkscape:label="mid2" />
  <path
     style="fill:#1b1918"
     d="m 465.0715, 250.10559999999998  c 3.8526,0.0000 6.9758,3.1232 6.9758,6.9758 c 0.0000,3.8526 -3.1232,6.9758 -6.9758,6.9758 c -3.8526,0.0000 -6.9758,-3.1232 -6.9758,-6.9758 c 0.0000,-3.8526 3.1232,-6.9758 6.9758,-6.9758 z"
     id="path37"
     inkscape:label="mid3" />
  <path
     style="fill:#1b1918"
     d="m 440.0348, 237.9616  c 3.8526,0.0000 6.9758,3.1232 6.9758,6.9758 c 0.0000,3.8526 -3.1232,6.9758 -6.9758,6.9758 c -3.8526,0.0000 -6.9758,-3.1232 -6.9758,-6.9758 c 0.0000,-3.8526 3.1232,-6.9758 6.9758,-6.9758 z"
     id="path39"
     inkscape:label="mid4" />
  <path
     style="fill:#1b1918"
     d="m 413.2732, 238.41400000000002  c 3.8526,0.0000 6.9758,3.1232 6.9758,6.9758 c 0.0000,3.8526 -3.1232,6.9758 -6.9758,6.9758 c -3.8526,0.0000 -6.9758,-3.1232 -6.9758,-6.9758 c 0.0000,-3.8526 3.1232,-6.9758 6.9758,-6.9758 z"
     id="path41"
     inkscape:label="mid5" />
  <path
     style="fill:#1b1918"
     d="m 387.7772, 250.18009999999998  c 3.8526,0.0000 6.9758,3.1232 6.9758,6.9758 c 0.0000,3.8526 -3.1232,6.9758 -6.9758,6.9758 c -3.8526,0.0000 -6.9758,-3.1232 -6.9758,-6.9758 c 0.0000,-3.8526 3.1232,-6.9758 6.9758,-6.9758 z"
     id="path43"
     inkscape:label="mid6" />
  <path
     style="fill:#1b1918"
     d="m 370.5368, 271.4751  c 3.8526,0.0000 6.9758,3.1232 6.9758,6.9758 c 0.0000,3.8526 -3.1232,6.9758 -6.9758,6.9758 c -3.8526,0.0000 -6.9758,-3.1232 -6.9758,-6.9758 c 0.0000,-3.8526 3.1232,-6.9758 6.9758,-6.9758 z"
     id="path45"
     inkscape:label="mid7" />
  <path
     style="fill:#1b1918"
     d="m 362.4109, 298.737  c 3.8526,0.0000 6.9758,3.1232 6.9758,6.9758 c 0.0000,3.8526 -3.1232,6.9758 -6.9758,6.9758 c -3.8526,0.0000 -6.9758,-3.1232 -6.9758,-6.9758 c 0.0000,-3.8526 3.1232,-6.9758 6.9758,-6.9758 z"
     id="path47"
     inkscape:label="mid8" />
  <path
     style="fill:#1b1918"
     d="m 362.3087, 325.96070000000003  c 3.8526,0.0000 6.9758,3.1232 6.9758,6.9758 c 0.0000,3.8526 -3.1232,6.9758 -6.9758,6.9758 c -3.8526,0.0000 -6.9758,-3.1232 -6.9758,-6.9758 c 0.0000,-3.8526 3.1232,-6.9758 6.9758,-6.9758 z"
     id="path49"
     inkscape:label="mid9" />
  <path
     style="fill:#1b1918"
     d="m 469.8218, 325.7868  c 3.8526,0.0000 6.9758,3.1232 6.9758,6.9758 c 0.0000,3.8526 -3.1232,6.9758 -6.9758,6.9758 c -3.8526,0.0000 -6.9758,-3.1232 -6.9758,-6.9758 c 0.0000,-3.8526 3.1232,-6.9758 6.9758,-6.9758 z"
     id="path51"
     inkscape:label="inner0" />
  <path
     style="fill:#1b1918"
     d="m 468.9272, 300.859  c 3.8526,0.0000 6.9758,3.1232 6.9758,6.9758 c 0.0000,3.8526 -3.1232,6.9758 -6.9758,6.9758 c -3.8526,0.0000 -6.9758,-3.1232 -6.9758,-6.9758 c 0.0000,-3.8526 3.1232,-6.9758 6.9758,-6.9758 z"
     id="path53"
     inkscape:label="inner1" />
  <path
     style="fill:#1b1918"
     d="m 459.5803, 277.3744  c 3.8526,0.0000 6.9758,3.1232 6.9758,6.9758 c 0.0000,3.8526 -3.1232,6.9758 -6.9758,6.9758 c -3.8526,0.0000 -6.9758,-3.1232 -6.9758,-6.9758 c 0.0000,-3.8526 3.1232,-6.9758 6.9758,-6.9758 z"
     id="path55"
     inkscape:label="inner2" />
  <path
     style="fill:#1b1918"
     d="m 439.0994, 262.9047  c 3.8526,0.0000 6.9758,3.1232 6.9758,6.9758 c 0.0000,3.8526 -3.1232,6.9758 -6.9758,6.9758 c -3.8526,0.0000 -6.9758,-3.1232 -6.9758,-6.9758 c 0.0000,-3.8526 3.1232,-6.9758 6.9758,-6.9758 z"
     id="path57"
     inkscape:label="inner3" />
  <path
     style="fill:#1b1918"
     d="m 414.0128, 263.1135  c 3.8526,0.0000 6.9758,3.1232 6.9758,6.9758 c 0.0000,3.8526 -3.1232,6.9758 -6.9758,6.9758 c -3.8526,0.0000 -6.9758,-3.1232 -6.9758,-6.9758 c 0.0000,-3.8526 3.1232,-6.9758 6.9758,-6.9758 z"
     id="path59"
     inkscape:label="inner4" />
  <path
     style="fill:#1b1918"
     d="m 393.3347, 277.1499  c 3.8526,0.0000 6.9758,3.1232 6.9758,6.9758 c 0.0000,3.8526 -3.1232,6.9758 -6.9758,6.9758 c -3.8526,0.0000 -6.9758,-3.1232 -6.9758,-6.9758 c 0.0000,-3.8526 3.1232,-6.9758 6.9758,-6.9758 z"
     id="path61"
     inkscape:label="inner5" />
  <path
     style="fill:#1b1918"
     d="m 383.8161, 300.5784  c 3.8526,0.0000 6.9758,3.1232 6.9758,6.9758 c 0.0000,3.8526 -3.1232,6.9758 -6.9758,6.9758 c -3.8526,0.0000 -6.9758,-3.1232 -6.9758,-6.9758 c 0.0000,-3.8526 3.1232,-6.9758 6.9758,-6.9758 z"
     id="path63"
     inkscape:label="inner6" />
  <path
     style="fill:#1b1918"
     d="m 383.2965, 325.77570000000003  c 3.8526,0.0000 6.9758,3.1232 6.9758,6.9758 c 0.0000,3.8526 -3.1232,6.9758 -6.9758,6.9758 c -3.8526,0.0000 -6.9758,-3.1232 -6.9758,-6.9758 c 0.0000,-3.8526 3.1232,-6.9758 6.9758,-6.9758 z"
     id="path65"
     inkscape:label="inner8" />
  <path
     d="m 581.7563,219.8001 h 3.0861 l 1.9465,-1.6642 -1.4164,-1.6917 -2.8687,-0.008 -2.0296,1.7472 z"
     style="fill:#1b1918;fill-rule:evenodd"
     id="path6"
     inkscape:label="unit_g" />
  <path
     d="m 586.8448,215.2701 1.3756,1.5622 1.963,-1.7717 0.8703,-6.3252 -0.8014,-1.0103 -2.7091,2.4636 z"
     style="fill:#1b1918;fill-rule:evenodd"
     id="path8"
     inkscape:label="unit_b" />
  <path
     d="m 586.027,221.3734 -0.8575,5.8138 1.9894,2.3324 1.1661,-1.1319 1.029,-7.3057 -1.372,-1.5435 z"
     style="fill:#1b1918;fill-rule:evenodd"
     id="path10"
     inkscape:label="unit_c" />
  <path
     d="m 580.8135,228.3197 2.8468,0.0113 2.058,2.3933 -1.0176,0.9272 -5.8652,-0.0227 -0.7316,-0.8932 z"
     style="fill:#1b1918;fill-rule:evenodd"
     id="path12"
     inkscape:label="unit_d" />
  <path
     d="m 576.0587,228.3591 0.9972,-7.1323 2.0415,-1.7595 1.3768,1.6166 -0.902,5.8011 -2.7538,2.4251 z"
     style="fill:#1b1918;fill-rule:evenodd"
     id="path14"
     inkscape:label="unit_e" />
  <path
     d="m 578.8278,208.7011 1.2005,-1.05 1.9449,2.2862 -0.6937,5.0462 -2.012,1.7782 -1.3697,-1.558 z"
     style="fill:#1b1918;fill-rule:evenodd"
     id="path16"
     inkscape:label="unit_f" />
  <path
     d="m 581.4471,206.3965 1.2155,-1.0789 h 5.5525 l 0.8566,1.0236 -2.7074,2.2686 h -3.0112 z"
     style="fill:#1b1918;fill-rule:evenodd"
     id="path18"
     inkscape:label="unit_a" />
  <path
     d="m 554.0522,219.8001 h 3.0861 l 1.9465,-1.6642 -1.4165,-1.6917 -2.8686,-0.008 -2.0296,1.7472 z"
     style="fill:#1b1918;fill-rule:evenodd"
     id="path20"
     inkscape:label="tens_g" />
  <path
     d="m 559.1407,215.2701 1.3756,1.5622 1.963,-1.7717 0.8702,-6.3252 -0.8013,-1.0103 -2.7091,2.4636 z"
     style="fill:#1b1918;fill-rule:evenodd"
     id="path22"
     inkscape:label="tens_b" />
  <path
     d="m 558.3229,221.3734 -0.8575,5.8138 1.9893,2.3324 1.1662,-1.1319 1.029,-7.3057 -1.372,-1.5435 z"
     style="fill:#1b1918;fill-rule:evenodd"
     id="path24"
     inkscape:label="tens_c" />
  <path
     d="m 553.1094,228.3197 2.8468,0.0113 2.058,2.3933 -1.0177,0.9272 -5.8651,-0.0227 -0.7317,-0.8932 z"
     style="fill:#1b1918;fill-rule:evenodd"
     id="path26"
     inkscape:label="tens_d" />
  <path
     d="m 548.3546,228.3591 0.9972,-7.1323 2.0415,-1.7595 1.3768,1.6166 -0.902,5.8011 -2.7539,2.4251 z"
     style="fill:#1b1918;fill-rule:evenodd"
     id="path28"
     inkscape:label="tens_e" />
  <path
     d="m 551.1237,208.7011 1.2005,-1.05 1.9448,2.2862 -0.6936,5.0462 -2.012,1.7782 -1.3697,-1.558 z"
     style="fill:#1b1918;fill-rule:evenodd"
     id="path30"
     inkscape:label="tens_f" />
  <path
     d="m 553.7429,206.3965 1.2155,-1.0789 h 5.5525 l 0.8567,1.0236 -2.7074,2.2686 h -3.0113 z"
     style="fill:#1b1918;fill-rule:evenodd"
     id="path32"
     inkscape:label="tens_a" />
  <path
     d="m 526.3481,219.8001 h 3.086 l 1.9466,-1.6642 -1.4165,-1.6917 -2.8686,-0.008 -2.0296,1.7472 z"
     style="fill:#1b1918;fill-rule:evenodd"
     id="path34"
     inkscape:label="hund_g" />
  <path
     d="m 531.4365,215.2701 1.3757,1.5622 1.963,-1.7717 0.8702,-6.3252 -0.8013,-1.0103 -2.7091,2.4636 z"
     style="fill:#1b1918;fill-rule:evenodd"
     id="path36"
     inkscape:label="hund_b" />
  <path
     d="m 530.6187,221.3734 -0.8574,5.8138 1.9893,2.3324 1.1662,-1.1319 1.029,-7.3057 -1.372,-1.5435 z"
     style="fill:#1b1918;fill-rule:evenodd"
     id="path38"
     inkscape:label="hund_c" />
  <path
     d="m 525.4053,228.3197 2.8468,0.0113 2.0579,2.3933 -1.0176,0.9272 -5.8652,-0.0227 -0.7316,-0.8932 z"
     style="fill:#1b1918;fill-rule:evenodd"
     id="path40"
     inkscape:label="hund_d" />
  <path
     d="m 520.6504,228.3591 0.9973,-7.1323 2.0415,-1.7595 1.3768,1.6166 -0.902,5.8011 -2.7539,2.4251 z"
     style="fill:#1b1918;fill-rule:evenodd"
     id="path42"
     inkscape:label="hund_e" />
  <path
     d="m 523.4196,208.7011 1.2005,-1.05 1.9448,2.2862 -0.6936,5.0462 -2.0121,1.7782 -1.3697,-1.558 z"
     style="fill:#1b1918;fill-rule:evenodd"
     id="path44"
     inkscape:label="hund_f" />
  <path
     d="m 526.0388,206.3965 1.2155,-1.0789 h 5.5525 l 0.8566,1.0236 -2.7073,2.2686 h -3.0113 z"
     style="fill:#1b1918;fill-rule:evenodd"
     id="path46"
     inkscape:label="hund_a" />
  <path
     d="m 498.6439,219.8001 h 3.0861 l 1.9466,-1.6642 -1.4165,-1.6917 -2.8687,-0.008 -2.0296,1.7472 z"
     style="fill:#1b1918;fill-rule:evenodd"
     id="path48"
     inkscape:label="thou_g" />
  <path
     d="m 503.7324,215.2701 1.3757,1.5622 1.963,-1.7717 0.8702,-6.3252 -0.8014,-1.0103 -2.709,2.4636 z"
     style="fill:#1b1918;fill-rule:evenodd"
     id="path50"
     inkscape:label="thou_b" />
  <path
     d="m 502.9146,221.3734 -0.8575,5.8138 1.9894,2.3324 1.1662,-1.1319 1.0289,-7.3057 -1.3719,-1.5435 z"
     style="fill:#1b1918;fill-rule:evenodd"
     id="path52"
     inkscape:label="thou_c" />
  <path
     d="m 497.7011,228.3197 2.8469,0.0113 2.0579,2.3933 -1.0176,0.9272 -5.8652,-0.0227 -0.7316,-0.8932 z"
     style="fill:#1b1918;fill-rule:evenodd"
     id="path54"
     inkscape:label="thou_d" />
  <path
     d="m 492.9463,228.3591 0.9972,-7.1323 2.0415,-1.7595 1.3768,1.6166 -0.902,5.8011 -2.7538,2.4251 z"
     style="fill:#1b1918;fill-rule:evenodd"
     id="path56"
     inkscape:label="thou_e" />
  <path
     d="m 495.7155,208.7011 1.2004,-1.05 1.9449,2.2862 -0.6937,5.0462 -2.012,1.7782 -1.3697,-1.558 z"
     style="fill:#1b1918;fill-rule:evenodd"
     id="path58"
     inkscape:label="thou_f" />
  <path
     d="m 498.3347,206.3965 1.2155,-1.0789 h 5.5525 l 0.8566,1.0236 -2.7074,2.2686 h -3.0112 z"
     style="fill:#1b1918;fill-rule:evenodd"
     id="path60"
     inkscape:label="thou_a" />
  <path
     d="m 452.4336,396.1514 c 5.3832,-3.5381 11.4731,-5.7293 16.8562,-9.2673 -0.3153,-1.5404 -0.9522,-3.9023 -3.1887,-5.0792 -1.2705,-0.6687 -3.4304,-0.5594 -4.4334,0.4682 -1.7597,1.8024 -2.1141,5.346 -3.8154,7.2023 -0.811,0.8851 -2.5827,0.8128 -3.4566,-0.009 -1.5572,-1.464 -1.52,-3.6973 -3.1011,-5.4997 -1.4237,-1.6226 -5.6067,-1.5229 -7.7426,-1.2137 -2.8017,0.4055 -2.4565,5.0032 0.2949,5.279 1.6615,0.1668 4.5838,-0.5599 5.5876,1.8603 1.5372,3.7054 0.9997,4.019 2.9991,6.2591 z"
     style="fill:#1b1918;fill-rule:evenodd"
     id="path62"
     inkscape:label="right_leg_up" />
  <path
     d="m 429.8404,412.0938 19.3182,3e-4 c 0.6213,-1.4443 2.1656,-3.0673 1.0028,-5.3108 -0.6604,-1.2744 -2.4954,-2.4191 -3.906,-2.1488 -2.474,0.4741 -5.0063,3.2787 -7.4634,3.8306 -1.1719,0.2634 -1.7384,-0.2387 -1.8167,-1.4371 -0.1311,-2.0035 1.5964,-4.9345 0.9748,-7.4176 -0.5245,-2.0954 -1.9849,-4.6519 -3.7241,-5.9321 -2.3263,-1.7119 -4.9859,0.9341 -3.3037,3.245 0.9926,1.3633 2.8625,4.026 2.222,6.1141 -0.9502,3.0984 -3.1201,4.566 -3.3039,9.0564 z"
     style="fill:#1b1918;fill-rule:evenodd"
     id="path64"
     inkscape:label="right_leg_down" />
  <path
     d="m 421.5427,412.0941 -19.3248,-1e-4 c -0.5947,-1.4555 -2.1101,-3.3126 -0.906,-5.5347 0.684,-1.2623 2.5394,-2.3729 3.9448,-2.0768 2.4649,0.5194 4.9453,3.37 7.3918,3.967 1.1669,0.2848 1.7425,-0.2068 1.8428,-1.4036 0.1678,-2.0007 -1.5056,-4.9629 -0.8386,-7.4342 0.5629,-2.0854 2.0699,-4.6147 3.8324,-5.8628 2.3573,-1.669 4.9679,1.0255 3.2436,3.3051 -1.0175,1.3448 -2.9359,3.9728 -2.3338,6.0723 0.8931,3.1153 3.0464,4.4747 3.1478,8.9678 z"
     style="fill:#1b1918;fill-rule:evenodd"
     id="path66"
     inkscape:label="left_leg_down" />
  <path
     d="m 399.2385,395.4774 c -5.3173,-3.6363 -11.366,-5.9388 -16.6833,-9.5751 0.3436,-1.5343 1.0236,-3.8841 3.2814,-5.0198 1.2826,-0.6452 3.4401,-0.4964 4.4241,0.5495 1.7263,1.8343 2.0156,5.3839 3.6825,7.271 0.7947,0.8999 2.5674,0.8601 3.4563,0.0545 1.5837,-1.4352 1.5875,-3.6688 3.2015,-5.4419 1.4531,-1.5962 5.6336,-1.4197 7.7636,-1.0714 2.7937,0.4569 2.3642,5.0475 -0.3918,5.2727 -1.6643,0.1363 -4.5727,-0.6439 -5.6208,1.7575 -1.6049,3.6766 -1.0733,3.9999 -3.1135,6.203 z"
     style="fill:#1b1918;fill-rule:evenodd"
     id="path68"
     inkscape:label="left_leg_up" />
  <path
     d="m 518.4442,339.323 c -2.5348,1.9464 -5.1355,4.1145 -8.3306,4.0848 -2.5794,-0.0241 -5.2958,-2.0283 -6.185,-3.7167 -0.3269,-0.621 -2.3166,-1.3133 -1.3349,1.3569 0.9673,2.631 1.1328,8.7104 -0.567,10.9753 l -13.2808,17.6953 c -1.8056,2.4057 2.6065,4.5662 4.6206,1.9197 l 15.6893,-20.6129 c 2.1781,-2.862 4.0043,-1.1806 6.6984,-3.8894 1.046,-1.0515 2.0514,-4.7799 3.3202,-6.1898 1.0772,-1.1972 0.636,-2.5954 -0.6302,-1.6232 z"
     style="fill:#1b1918;fill-rule:evenodd"
     id="path70"
     inkscape:label="right_arm_outer" />
  <path
     d="m 482.8713,364.9649 2.0522,-14.8657 c 0.4005,-2.9011 -1.5875,-5.6165 -2.351,-7.6207 -0.4617,-1.2125 0.1052,-1.7118 1.1052,-1.0822 1.9202,1.2091 3.5102,3.0821 5.4974,2.9746 2.8044,-0.152 5.4716,-1.7138 7.6916,-3.3769 2.6282,-1.9688 2.5674,-0.3168 1.0193,1.2907 -1.1907,1.2365 -0.8207,2.0096 -2.9289,5.8584 -0.991,1.8093 -4.7529,2.737 -5.0223,4.7138 l -1.7262,12.651 c -0.3735,2.7383 -5.7155,2.1974 -5.3373,-0.543 z"
     style="fill:#1b1918;fill-rule:evenodd"
     id="path72"
     inkscape:label="right_arm_mid" />
  <path
     d="m 463.9186,343.2871 c -0.1503,-0.5825 -0.5657,-1.4427 0.6392,-1.0163 2.7519,0.974 4.1584,1.9482 6.5228,1.1934 2.4651,-0.7868 5.6602,-3.5542 6.7572,-5.2877 0.3906,-0.617 1.4974,-0.5302 1.4178,0.3138 -0.1529,1.6168 -0.7217,-0.0914 -1.188,6.3839 -0.1339,1.861 -0.5706,4.2104 -1.9343,5.3112 l 3.5928,13.7057 c 0.4298,1.64 -3.7613,3.3708 -4.4622,1.2211 l -4.3799,-13.4259 c -0.8467,-0.9808 -1.8978,-1.0724 -3.2661,-2.6717 -1.2565,-1.4689 -3.4014,-4.5732 -3.6993,-5.7275 z"
     style="fill:#1b1918;fill-rule:evenodd"
     id="path74"
     inkscape:label="right_arm_inner" />
  <path
     d="m 477.1862,368.7292 -32.7006,-4.4146 c -2.7021,-0.3649 -3.4676,5.3832 -0.62,5.7726 l 32.767,4.482 c 2.4529,0.3353 3.5029,-5.442 0.5536,-5.84 z"
     style="fill:#1b1918;fill-rule:evenodd"
     id="path76"
     inkscape:label="right_arm" />
  <path
     d="m 374.9848,368.7691 32.6938,-4.4644 c 2.7015,-0.369 3.4758,5.378 0.6287,5.7717 l -32.7601,4.5319 c -2.4523,0.3391 -3.5112,-5.4367 -0.5624,-5.8392 z"
     style="fill:#1b1918;fill-rule:evenodd"
     id="path78"
     inkscape:label="left_arm" />
  <path
     d="m 387.7619,343.3387 c 0.1405,-0.5848 0.5415,-1.4519 -0.6562,-1.0054 -2.7352,1.0199 -4.1252,2.0174 -6.5019,1.3022 -2.4778,-0.7455 -5.7188,-3.459 -6.8446,-5.174 -0.4009,-0.6104 -1.5061,-0.505 -1.4123,0.3375 0.1799,1.614 0.72,-0.1035 1.2945,6.3631 0.1649,1.8585 0.6409,4.2003 2.0228,5.2781 l -3.3632,13.7639 c -0.4024,1.6469 3.8171,3.3074 4.4819,1.1463 l 4.1549,-13.4972 c 0.8302,-0.9948 1.8796,-1.104 3.221,-2.7259 1.2318,-1.4897 3.3245,-4.6294 3.6031,-5.7886 z"
     style="fill:#1b1918;fill-rule:evenodd;stroke:#1b1918;stroke-width:0.21600001;stroke-linecap:butt;stroke-linejoin:miter;stroke-dasharray:none"
     id="path80"
     inkscape:label="left_arm_inner" />
  <path
     d="m 368.9265,364.8371 -2.1864,-14.8466 c -0.4266,-2.8974 1.5368,-5.6306 2.2821,-7.6416 0.4508,-1.2166 -0.1206,-1.7108 -1.1149,-1.0722 -1.9092,1.2264 -3.4822,3.1137 -5.4703,3.0242 -2.8057,-0.1268 -5.4868,-1.6644 -7.7218,-3.3073 -2.6459,-1.945 -2.5701,-0.2936 -1.0076,1.2998 1.2018,1.2257 0.8388,2.0021 2.9817,5.8318 1.0073,1.8002 4.7774,2.6939 5.0647,4.6681 l 1.8404,12.635 c 0.3982,2.7348 5.7351,2.1456 5.3321,-0.5912 z"
     style="fill:#1b1918;fill-rule:evenodd"
     id="path82"
     inkscape:label="left_arm_mid" />
  <path
     d="m 333.4237,340.0759 c 2.5344,1.947 5.1347,4.1157 8.3298,4.0867 2.5794,-0.0235 5.2962,-2.0272 6.1858,-3.7153 0.3271,-0.621 2.3169,-1.3129 1.3346,1.3572 -0.9679,2.6308 -1.1348,8.7101 0.5646,10.9754 l 13.2767,17.6983 c 1.8052,2.406 -2.6075,4.5656 -4.621,1.9186 l -15.6846,-20.6164 c -2.1775,-2.8625 -4.004,-1.1815 -6.6976,-3.8909 -1.0457,-1.0517 -2.0503,-4.7803 -3.3187,-6.1905 -1.077,-1.1975 -0.6355,-2.5956 0.6304,-1.6231 z"
     style="fill:#1b1918;fill-rule:evenodd"
     id="path84"
     inkscape:label="left_arm_outer" />
  <path
     d="M 594.0275,198.6435 H 259.4713 c -3.9399,0 -7.153,3.213 -7.153,7.1529 v 90.3175 l 15.003,15.0029 v 106.3701 c 0,3.9399 3.143,7.1529 7.0829,7.1529 h 304.6904 c 3.9399,0 7.1529,-3.213 7.1529,-7.1529 l -0.07,-106.1181 15.0029,-15.0029 v -90.5695 c 0,-3.9399 -3.213,-7.1529 -7.1529,-7.1529 z M 247.5343,193.8594 H 605.9645 V 429.4239 H 247.5343 Z"
     style="fill:#1b1918;fill-rule:evenodd"
     id="path146"
     inkscape:label="frame" />
  <path
     d="m 423.8006,361.5206 c -6.5739,1.3082 -11.642,7.5011 -11.6958,14.564 -0.0625,8.1624 6.2451,14.8419 14.0409,14.868 7.796,0.0261 14.2052,-6.6103 14.2674,-14.7729 0.0541,-7.1207 -4.9609,-13.345 -11.649,-14.6427 l 0.0543,-4.1817 c 6.4944,-1.1502 11.2393,-4.8419 15.1273,-9.9069 0.3183,-0.4145 0.6657,-0.2561 0.8664,0.1433 0.3851,0.7676 0.1293,1.3233 1.3375,1.3322 1.5969,0.0116 2.1551,-5.0074 2.2409,-7.3939 0.1122,-3.1282 -0.8792,-7.4041 -2.3517,-7.4626 -1.3745,-0.0549 -1.3826,1.1763 -1.6196,1.8243 -0.0931,0.2548 -0.8835,0.5472 -1.0754,-0.2288 -0.8594,-3.4753 -6.5227,-7.832 -11.7894,-9.1915 -0.3702,-0.0956 -0.591,-0.8027 -0.2775,-1.2155 2.7183,-3.5817 -0.2002,-11.2982 -4.9803,-11.2568 -4.7805,0.0414 -7.6073,7.7035 -4.8295,11.2393 0.3203,0.4075 0.3306,1.1634 -0.0367,1.2731 -5.0231,1.5016 -11.6586,5.7845 -11.9445,9.3539 -0.1479,0.5542 -0.8215,0.5451 -1.1669,0.1546 -0.457,-0.5416 -0.0905,-1.8027 -1.4644,-1.7247 -1.4717,0.0838 -2.3914,4.3751 -2.2267,7.501 0.1257,2.3849 0.5467,7.2815 2.1425,7.3572 0.9874,0.0468 0.9528,-1.1118 1.3857,-1.7255 0.3354,-0.2967 0.7604,-0.2461 1.0149,0.2115 4.0394,4.9464 8.1768,8.684 14.6895,9.7255 z m 10.01,-30.3289 c -0.4275,0.2683 -0.2776,1.9971 -1.2738,2.5239 -1.9,1.0044 -3.0635,-1.6889 -3.7063,-1.2356 -0.7045,0.4966 -0.3606,2.9792 0.5323,4.4078 1.1645,1.8638 3.4118,1.9505 5.0204,1.0571 1.3397,-0.7442 2.3035,-1.5959 1.8404,-3.967 -0.4638,-2.3739 -1.6091,-3.291 -2.413,-2.7862 z m -14.4564,-0.5808 c 0.418,0.2851 -0.0815,2.3906 0.924,2.9013 1.917,0.973 2.8595,-1.6505 3.5104,-1.2078 0.713,0.4853 0.6315,3.1461 -0.2378,4.5901 -1.1337,1.8832 -3.6448,2.0085 -5.3517,1.3198 -1.4614,-0.5894 -2.1034,-1.5623 -2.1922,-3.9776 -0.0605,-1.6419 2.1065,-4.4724 3.3473,-3.6258 z"
     style="fill:#1b1918;fill-rule:evenodd"
     id="path148"
     inkscape:label="body" />
  <path
     d="m 324.7713,353.514 1.806,-1.1931 -1.1784,-2.5035 -1.9162,1.186 z m -2.173,-4.1003 -6.7352,-13.6522 3.7786,-2.1645 5.3042,14.3314 z m -13.7719,-0.5224 2.5107,-1.7532 1.9573,4.2451 2.0469,-1.4465 -2.0115,-4.1627 2.6479,-1.809 5.5615,11.8037 -2.565,1.8357 -2.2638,-4.7922 -1.9924,1.3912 2.2643,4.8476 -2.5393,1.6707 z m -2.8922,13.0964 0.2177,2.9809 c 1.8307,-0.1463 2.4724,-0.0947 3.4742,-0.8425 1.4907,-1.1132 2.5616,-2.6073 2.1296,-4.3172 -0.4288,-1.6973 -1.3569,-2.5253 -2.6166,-2.9999 -1.0993,-0.4138 -3.9127,-0.519 -3.9957,-1.5159 -0.1199,-1.4397 1.6534,-1.3595 2.5784,-1.5324 l 0.0198,-2.2468 c -0.14,-0.4943 -2.4196,-0.2542 -3.2457,0.3756 -1.0437,0.7954 -2.0406,2.0378 -1.9834,3.3477 0.0958,2.202 1.4117,3.5255 2.933,3.8492 1.3391,0.2854 3.3086,0.7469 2.8404,2.0293 -0.2897,0.7929 -1.2924,0.9893 -2.3517,0.872 z m -13.4265,-1.6166 2.5239,-1.7587 3.9906,8.1256 c 0.3581,0.7285 1.1146,0.5992 1.4814,0.3506 0.4683,-0.3166 0.8034,-0.5652 0.4085,-1.4272 l -3.8628,-8.4303 2.655,-1.8986 4.3718,9.3126 c 0.8357,1.7802 -0.2528,3.7265 -2.1923,5.0244 -1.6789,1.1237 -4.5144,1.3082 -5.4411,-0.7146 z m -5.0239,6.7073 1.1101,-0.6979 c 0.553,-0.3478 1.434,0.0136 1.5831,0.7435 0.2222,1.0883 -0.7129,1.5928 -1.607,2.2275 z m 1.9219,11.3114 2.5274,-1.709 -1.9026,-3.9836 0.8158,-0.4668 3.5552,2.6866 2.1855,-1.5426 -4.1941,-3.0095 c 2.2399,-3.8223 -1.1231,-9.0457 -5.2895,-6.1591 l -3.2768,2.2702 z m -2.1915,1.5967 c -2.1072,1.7317 -6.01,3.5995 -8.5042,-2.1685 -2.1285,-4.9218 0.2115,-8.4566 2.9789,-9.5074 l 1.3301,3.043 c -2.5867,1.0335 -2.4489,2.9957 -1.427,5.366 1.1829,2.7431 3.0821,1.6316 4.3211,0.5683 z"
     style="fill:#1b1918;fill-rule:evenodd"
     id="path150"
     inkscape:label="left_crush" />
  <path
     d="m 378.8303,408.0416 c 3.1002,-0.6115 7.1297,-4.7543 5.862,-9.5281 -1.4817,-5.5803 -5.908,-7.441 -11.6872,-5.3878 l 3.7649,3.3341 -3.8738,4.0762 6.2606,1.6112 -1.7677,2.5827 2.5501,0.7228 z m -23.6081,-6.215 -4.8189,-5.7342 -0.0745,5.3289 -2.3942,-1.4956 0.3507,3.4396 -2.0132,1.0366 1.6251,1.624 0.2735,2.1305 3.9019,-0.9595 3.1006,4.0884 1.2872,-2.384 3.1992,-1.1157 -1.5707,-3.2785 2.3737,-2.4891 z m 1.4752,-2.2782 -8.2537,-9.623 -0.3438,6.364 -6.0894,-4.5938 3.4404,8.3316 -0.1528,1.8451 -3.871,1.1545 4.0842,4.3971 -1.3938,4.8529 6.7371,-2.6331 5.2033,7.0682 1.5494,-3.6978 4.3367,1.58 -1.8383,-4.1697 6.3944,-2.1493 -4.6913,-2.5316 0.1071,-1.1214 5.8658,-5.8668 z m -22.7946,-18.5904 1.3298,-5.0571 c -4.9122,-2.3275 -9.2971,-1.6854 -11.395,1.7351 -1.2303,2.0061 -1.8196,4.3124 -0.8147,9.1715 l 2.8681,0.3549 0.4654,-2.2634 2.2746,0.0252 -0.0221,-5.906 z"
     style="fill:#1b1918;fill-rule:evenodd"
     id="path152"
     inkscape:label="left_splat" />
  <path
     d="m 517.5924,381.0762 -1.3241,-5.0585 c 4.9148,-2.3221 9.2988,-1.6752 11.3931,1.7476 1.2279,2.0072 1.8147,4.3143 0.8044,9.1723 l -2.8681,0.3518 -0.4631,-2.264 -2.2746,0.0229 0.0287,-5.9062 z m -21.3069,20.4372 4.8144,-5.7379 0.0788,5.3286 2.3927,-1.4976 -0.0558,3.4418 2.7436,1.0409 -2.6453,1.6175 0.019,2.279 -4.1933,-1.1046 -3.0974,4.0909 -1.2889,-2.3828 -3.2003,-1.1129 1.5681,-3.2799 -2.376,-2.4871 z m -1.4771,-2.2768 8.2457,-9.6301 0.3492,6.364 6.09,-5.1828 -3.7287,8.7701 0.445,1.9933 3.8718,1.1511 -4.0804,4.4008 1.3977,4.8515 -6.739,-2.6277 -5.1977,7.0727 -1.5522,-3.6964 -4.045,1.7315 1.5443,-4.3195 -6.1098,-1.4116 4.4027,-3.2675 -0.108,-1.1214 -5.8705,-5.8621 z m -22.1729,8.8739 c -3.0997,-0.6146 -7.1246,-4.762 -5.8518,-9.5344 1.4879,-5.5788 5.9164,-7.4347 11.6932,-5.375 l -3.7684,3.3301 3.869,4.0802 -6.2623,1.6044 1.7648,2.5846 -2.5509,0.72 z"
     style="fill:#1b1918;fill-rule:evenodd"
     id="path154"
     inkscape:label="right_splat" />
  <path
     d="m 568.0678,375.5095 -6.7351,-13.652 3.7789,-2.1648 5.3041,14.3317 z m 2.1733,4.1003 1.806,-1.1931 -1.1784,-2.5036 -1.9165,1.186 z m -15.9451,-4.6227 2.5109,-1.753 1.957,4.2449 2.0472,-1.4465 -2.0114,-4.1624 2.6478,-1.8094 5.5616,11.8038 -2.5654,1.836 -2.2634,-4.7926 -1.9925,1.3913 2.2643,4.8478 -2.5393,1.6707 z m -2.8922,13.0966 0.218,2.9809 c 1.8306,-0.1463 2.4723,-0.0947 3.4741,-0.8427 1.4907,-1.1132 2.5617,-2.6073 2.1297,-4.3172 -0.4292,-1.6974 -1.357,-2.5251 -2.6167,-2.9996 -1.0995,-0.4142 -3.9126,-0.5193 -3.9957,-1.5163 -0.1202,-1.4394 1.6534,-1.3595 2.5784,-1.5324 l 0.0198,-2.2467 c -0.14,-0.4944 -2.4196,-0.2543 -3.2459,0.3756 -1.0435,0.7956 -2.0404,2.0378 -1.9831,3.348 0.0958,2.2016 1.4116,3.5254 2.933,3.8491 1.3391,0.2852 3.3086,0.7467 2.8403,2.0291 -0.2897,0.7928 -1.2923,0.9895 -2.3519,0.8722 z m -13.4263,-1.6169 2.5237,-1.7583 4.1164,8.3718 c 0.2192,0.4456 0.9868,0.7251 1.4616,0.4743 0.7741,-0.4088 0.6519,-0.9757 0.4073,-1.5137 l -3.9674,-8.714 2.6547,-1.8984 4.5099,9.5831 c 0.754,1.6016 -0.7713,3.9163 -2.3301,4.7537 -1.6098,0.8648 -4.7333,0.8308 -5.4413,-0.7146 z m -4.8209,6.8695 c 2.0551,-1.5253 3.9762,-0.142 1.1081,2.1722 z m 1.7189,11.1492 2.6584,-1.8419 -1.6648,-3.6624 0.7755,-0.5264 3.0637,2.6578 2.3485,-1.6421 -4.1944,-3.0099 c 2.2402,-3.8222 -1.1228,-9.0456 -5.2895,-6.1591 l -3.2765,2.2703 z m -2.425,1.3669 c -1.9474,2.0911 -5.3359,4.2633 -8.2709,-1.9386 -2.308,-4.8773 -0.0689,-8.3384 2.8757,-9.6095 l 1.4066,3.0164 c -2.2845,1.8824 -2.4081,3.6048 -1.4004,5.4946 1.1532,2.1626 3.0549,1.4641 4.2979,0.8518 z"
     style="fill:#1b1918;fill-rule:evenodd"
     id="path156"
     inkscape:label="right_crush" />
  <path
     d="m 235.8013,173.1335 0.0105,273.428 393.4573,-0.0151 -0.0105,-273.428 z"
     style="fill:none;stroke:#1b1918;stroke-width:0.21600001;stroke-linecap:butt;stroke-linejoin:miter;stroke-dasharray:none"
     id="path158" />
  <path
     d="m 588.8991,311.3688 v 113.271 h -48.0586 v -113.271 z"
     style="fill:none;stroke:#1b1918;stroke-width:0.21600001;stroke-linecap:butt;stroke-linejoin:miter;stroke-dasharray:none"
     id="path160" />
  <path
     d="M 540.8405,198.6435 V 311.3688 H 603.832 V 198.6435 Z"
     style="fill:none;stroke:#1b1918;stroke-width:0.21600001;stroke-linecap:butt;stroke-linejoin:miter;stroke-dasharray:none"
     id="path162" />
  <path
     d="m 317.9614,311.1168 v 113.523 h -48.0586 v -113.523 z"
     style="fill:none;stroke:#1b1918;stroke-width:0.21600001;stroke-linecap:butt;stroke-linejoin:miter;stroke-dasharray:none"
     id="path164" />
  <path
     d="m 254.9699,198.6435 v 112.4733 h 62.9915 V 198.6435 Z"
     style="fill:none;stroke:#1b1918;stroke-width:0.21600001;stroke-linecap:butt;stroke-linejoin:miter;stroke-dasharray:none"
     id="path166" />
  <path
     d="m 563.9638,207.9818 -4.1541,22.6278"
     style="fill:#1b1918;fill-rule:evenodd;stroke:#1b1918;stroke-width:0.21600001;stroke-linecap:butt;stroke-linejoin:miter;stroke-dasharray:none"
     id="path168" />
  <path
     d="m 565.847,231.5127 -23.006,1e-4"
     style="fill:#1b1918;fill-rule:evenodd;stroke:#1b1918;stroke-width:0.21600001;stroke-linecap:butt;stroke-linejoin:miter;stroke-dasharray:none"
     id="path170" />
  <path
     d="m 567.4462,219.6473 -23.006,1e-4"
     style="fill:#1b1918;fill-rule:evenodd;stroke:#1b1918;stroke-width:0.21600001;stroke-linecap:butt;stroke-linejoin:miter;stroke-dasharray:none"
     id="path172" />
  <path
     d="m 569.5262,208.5526 -23.006,10e-5"
     style="fill:#1b1918;fill-rule:evenodd;stroke:#1b1918;stroke-width:0.21600001;stroke-linecap:butt;stroke-linejoin:miter;stroke-dasharray:none"
     id="path174" />
  <path
     d="m 555.3622,206.8233 -4.1541,22.6279"
     style="fill:#1b1918;fill-rule:evenodd;stroke:#1b1918;stroke-width:0.21600001;stroke-linecap:butt;stroke-linejoin:miter;stroke-dasharray:none"
     id="path176" />
  <path
     d="m 560.8121,207.5356 -4.154,22.6279"
     style="fill:#1b1918;fill-rule:evenodd;stroke:#1b1918;stroke-width:0.21600001;stroke-linecap:butt;stroke-linejoin:miter;stroke-dasharray:none"
     id="path178" />
  <path
     d="m 565.7167,228.3323 -23.006,1e-4"
     style="fill:#1b1918;fill-rule:evenodd;stroke:#1b1918;stroke-width:0.21600001;stroke-linecap:butt;stroke-linejoin:miter;stroke-dasharray:none"
     id="path180" />
  <path
     d="m 567.3159,216.4669 -23.006,1e-4"
     style="fill:#1b1918;fill-rule:evenodd;stroke:#1b1918;stroke-width:0.21600001;stroke-linecap:butt;stroke-linejoin:miter;stroke-dasharray:none"
     id="path182" />
  <path
     d="m 569.396,205.3722 -23.006,1e-4"
     style="fill:#1b1918;fill-rule:evenodd;stroke:#1b1918;stroke-width:0.21600001;stroke-linecap:butt;stroke-linejoin:miter;stroke-dasharray:none"
     id="path184" />
  <path
     d="m 552.2105,206.3772 -4.154,22.6278"
     style="fill:#1b1918;fill-rule:evenodd;stroke:#1b1918;stroke-width:0.21600001;stroke-linecap:butt;stroke-linejoin:miter;stroke-dasharray:none"
     id="path186" />
  <path
     d="m 548.422,209.3551 5.9515,-5.8896"
     style="fill:#1b1918;fill-rule:evenodd;stroke:#1b1918;stroke-width:0.21600001;stroke-linecap:butt;stroke-linejoin:miter;stroke-dasharray:none"
     id="path188" />
  <path
     d="m 560.4555,204.4501 4.8861,5.8815"
     style="fill:#1b1918;fill-rule:evenodd;stroke:#1b1918;stroke-width:0.21600001;stroke-linecap:butt;stroke-linejoin:miter;stroke-dasharray:none"
     id="path190" />
  <path
     d="m 547.1325,227.0408 4.886,5.8815"
     style="fill:#1b1918;fill-rule:evenodd;stroke:#1b1918;stroke-width:0.21600001;stroke-linecap:butt;stroke-linejoin:miter;stroke-dasharray:none"
     id="path192" />
  <path
     d="m 549.2776,214.44 6.3819,7.7361"
     style="fill:#1b1918;fill-rule:evenodd;stroke:#1b1918;stroke-width:0.21600001;stroke-linecap:butt;stroke-linejoin:miter;stroke-dasharray:none"
     id="path194" />
  <path
     d="m 553.6982,225.9622 6.3819,7.7361"
     style="fill:#1b1918;fill-rule:evenodd;stroke:#1b1918;stroke-width:0.21600001;stroke-linecap:butt;stroke-linejoin:miter;stroke-dasharray:none"
     id="path196" />
  <path
     d="m 546.8897,222.9283 9.2905,-7.6905"
     style="fill:#1b1918;fill-rule:evenodd;stroke:#1b1918;stroke-width:0.21600001;stroke-linecap:butt;stroke-linejoin:miter;stroke-dasharray:none"
     id="path198" />
  <path
     d="m 564.4277,214.1059 -9.3954,7.791"
     style="fill:#1b1918;fill-rule:evenodd;stroke:#1b1918;stroke-width:0.21600001;stroke-linecap:butt;stroke-linejoin:miter;stroke-dasharray:none"
     id="path200" />
  <path
     d="m 555.5754,225.8296 -9.3954,7.791"
     style="fill:#1b1918;fill-rule:evenodd;stroke:#1b1918;stroke-width:0.21600001;stroke-linecap:butt;stroke-linejoin:miter;stroke-dasharray:none"
     id="path202" />
  <path
     d="m 563.4314,226.0523 -9.3953,7.7911"
     style="fill:#1b1918;fill-rule:evenodd;stroke:#1b1918;stroke-width:0.21600001;stroke-linecap:butt;stroke-linejoin:miter;stroke-dasharray:none"
     id="path204" />
  <path
     d="m 564.215,223.87 -7.6713,-9.6118"
     style="fill:#1b1918;fill-rule:evenodd;stroke:#1b1918;stroke-width:0.21600001;stroke-linecap:butt;stroke-linejoin:miter;stroke-dasharray:none"
     id="path206" />
  <path
     d="m 361.0283,371.6658 14.9219,0.3444 -1.3779,-7.6825 z"
     style="fill:none;stroke:#1b1918;stroke-width:0.21600001;stroke-linecap:butt;stroke-linejoin:miter;stroke-dasharray:none"
     id="path208" />
  <path
     d="m 427.0333,183.3759 -1.3117,226.8426"
     style="fill:none;stroke:#1b1918;stroke-width:0.21600001;stroke-linecap:butt;stroke-linejoin:miter;stroke-dasharray:none"
     id="path210" />
  <path
     d="m 490.853,371.9457 -14.9219,0.3411 1.3796,-7.6823 z"
     style="fill:none;stroke:#e30016;stroke-width:0.21600001;stroke-linecap:butt;stroke-linejoin:miter;stroke-dasharray:none"
     id="path212" />
  <path
     d="m 476.0727,372.2022 9.5951,-7.04"
     style="fill:none;stroke:#e30016;stroke-width:0.21600001;stroke-linecap:butt;stroke-linejoin:miter;stroke-dasharray:none"
     id="path214" />
</svg>
